<svg xmlns="http://www.w3.org/2000/svg" aria-hidden="true" overflow="hidden" style="position:absolute;width:0;height:0">
  <defs>
    <symbol id="icon-arrow" viewBox="0 0 38 32">
      <path d="M.624 17.219a2.134 2.134 0 0 1 0-3.017L14.2.626a2.134 2.134 0 0 1 3.017 3.017L5.149 15.711l12.068 12.068a2.134 2.134 0 0 1-3.017 3.017L.624 17.22zm37.268.625H2.133v-4.267h35.759v4.267z"/>
    </symbol>
    <symbol id="icon-facebook" viewBox="0 0 32 32">
      <path d="M0 16C0 7.163 7.163 0 16 0s16 7.163 16 16-7.163 16-16 16S0 24.837 0 16zm17.668 9.408v-8.705h2.403l.319-3h-2.721l.004-1.501c0-.782.074-1.202 1.198-1.202h1.502V8H17.97c-2.887 0-3.903 1.455-3.903 3.902v1.801h-1.799v3h1.799v8.705h3.602z"/>
    </symbol>
    <symbol id="icon-instagram" viewBox="0 0 32 32">
      <path d="M0 16C0 7.163 7.163 0 16 0s16 7.163 16 16-7.163 16-16 16S0 24.837 0 16zm16.001-8.533c-2.317 0-2.608.01-3.519.052-.909.042-1.528.185-2.071.396-.561.218-1.037.51-1.512.984s-.766.95-.985 1.511c-.212.543-.356 1.163-.396 2.071-.041.91-.051 1.201-.051 3.519s.01 2.607.052 3.518c.042.909.186 1.529.396 2.071.218.561.51 1.037.984 1.512s.95.767 1.511.985c.543.211 1.163.355 2.072.396.91.041 1.201.052 3.518.052s2.608-.01 3.518-.052c.908-.042 1.529-.185 2.072-.396.561-.218 1.036-.51 1.511-.985s.766-.95.985-1.512c.21-.543.354-1.163.396-2.071.041-.91.052-1.2.052-3.518s-.011-2.608-.052-3.519c-.043-.909-.187-1.529-.396-2.071-.219-.561-.51-1.037-.985-1.512s-.949-.766-1.511-.984c-.544-.211-1.164-.355-2.073-.396-.91-.041-1.2-.052-3.518-.052h.003z"/>
      <path d="M15.235 9.005h.766c2.278 0 2.548.008 3.448.049.832.038 1.284.177 1.584.294.398.155.682.34.981.638s.484.583.639.981c.117.3.256.752.294 1.584.041.899.05 1.17.05 3.447s-.009 2.548-.05 3.447c-.038.832-.177 1.284-.294 1.584-.155.398-.34.682-.639.98s-.582.483-.981.638c-.3.117-.752.256-1.584.294-.9.041-1.17.05-3.448.05s-2.549-.009-3.448-.05c-.832-.038-1.284-.177-1.585-.294-.398-.155-.683-.34-.981-.638s-.484-.582-.639-.981c-.117-.3-.256-.752-.294-1.584-.041-.9-.049-1.17-.049-3.449s.008-2.548.049-3.447c.038-.832.177-1.284.294-1.584.155-.398.34-.683.639-.981s.583-.484.981-.639c.301-.117.753-.256 1.585-.294.787-.036 1.092-.046 2.683-.048v.002zm5.32 1.417a1.024 1.024 0 1 0 0 2.048 1.024 1.024 0 0 0 0-2.048zM16 11.618a4.382 4.382 0 1 0 0 8.764 4.382 4.382 0 0 0 0-8.764z"/>
      <path d="M16.001 13.155a2.844 2.844 0 1 1 .001 5.689 2.844 2.844 0 0 1-.001-5.689z"/>
    </symbol>
    <symbol id="icon-menu" viewBox="0 0 32 32">
    <path d="M29.333 24.007c0 0.733-0.595 1.327-1.327 1.327h-10.68c-0.352 0-0.689-0.14-0.938-0.389s-0.389-0.586-0.389-0.938c0-0.352 0.14-0.689 0.389-0.938s0.586-0.389 0.938-0.389h10.68c0.733 0 1.327 0.593 1.327 1.327zM29.333 16c0 0.733-0.595 1.327-1.327 1.327h-24.013c-0.352 0-0.689-0.14-0.938-0.389s-0.389-0.586-0.389-0.938c0-0.352 0.14-0.689 0.389-0.938s0.586-0.389 0.938-0.389h24.013c0.733 0 1.327 0.595 1.327 1.327zM28.007 9.32c0.352 0 0.689-0.14 0.938-0.389s0.389-0.586 0.389-0.938c0-0.352-0.14-0.689-0.389-0.938s-0.586-0.389-0.938-0.389h-16.013c-0.174 0-0.347 0.034-0.508 0.101s-0.307 0.164-0.43 0.288c-0.123 0.123-0.221 0.269-0.288 0.43s-0.101 0.333-0.101 0.508c0 0.174 0.034 0.347 0.101 0.508s0.164 0.307 0.288 0.43c0.123 0.123 0.269 0.221 0.43 0.288s0.333 0.101 0.508 0.101h16.013z"></path>
    </symbol>
    <symbol id="icon-logo" viewBox="0 0 53 32">
    <path d="M6.378 5.968h1.119c-0.051-1.442-1.381-2.519-3.228-2.519-1.827 0-3.263 1.064-3.263 2.667 0 1.288 0.933 2.051 2.426 2.481l1.173 0.337c1.006 0.279 1.904 0.635 1.904 1.583 0 1.045-1.010 1.737-2.333 1.737-1.138 0-2.144-0.506-2.237-1.587h-1.192c0.112 1.567 1.378 2.628 3.429 2.628 2.202 0 3.452-1.212 3.452-2.76 0-1.788-1.699-2.369-2.686-2.628l-0.971-0.263c-0.708-0.186-1.846-0.558-1.846-1.583 0-0.913 0.84-1.587 2.109-1.587 1.154 0 2.032 0.551 2.144 1.494zM9.53 13.128h1.154v-4.269h5.093v4.269h1.157v-9.548h-1.157v4.253h-5.093v-4.253h-1.154v9.548zM27.3 8.356c0-3.022-1.772-4.907-4.215-4.907s-4.215 1.885-4.215 4.907c0 3.019 1.772 4.904 4.215 4.904s4.215-1.885 4.215-4.904zM26.181 8.356c0 2.478-1.362 3.82-3.096 3.82s-3.096-1.343-3.096-3.82c0-2.481 1.362-3.824 3.096-3.824s3.096 1.343 3.096 3.824zM29.241 13.128h1.154v-3.487h2.090c2.224 0 3.228-1.353 3.228-3.038 0-1.689-1.003-3.022-3.247-3.022h-3.224v9.548zM30.395 8.615v-4.010h2.035c1.551 0 2.144 0.849 2.144 1.997 0 1.144-0.593 2.013-2.128 2.013h-2.051z"></path>
    <path d="M0.83 28.718h4.080c2.144 0 3.285-1.119 3.285-2.638 0-1.413-1.013-2.266-2.096-2.317v-0.093c0.99-0.224 1.724-0.93 1.724-2.051 0-1.433-1.064-2.449-3.17-2.449h-3.824v9.548zM2.849 27.067v-2.535h1.692c0.968 0 1.571 0.558 1.571 1.346 0 0.718-0.49 1.189-1.619 1.189h-1.644zM2.849 23.167v-2.365h1.532c0.897 0 1.404 0.462 1.404 1.151 0 0.756-0.615 1.215-1.439 1.215h-1.497zM11.15 28.718l0.708-2.176h3.445l0.708 2.176h2.163l-3.292-9.548h-2.599l-3.298 9.548h2.163zM12.372 24.965l1.176-3.612h0.074l1.176 3.612h-2.426zM19.324 28.718h2.019v-2.715l0.994-1.212 2.615 3.926h2.413l-3.587-5.272 3.545-4.276h-2.42l-3.436 4.212h-0.125v-4.212h-2.019v9.548zM28.378 28.718h6.452v-1.663h-4.433v-2.282h4.083v-1.663h-4.083v-2.276h4.413v-1.663h-6.433v9.548zM36.42 28.718h2.019v-3.385h1.471l1.811 3.385h2.228l-2.029-3.712c1.087-0.465 1.689-1.413 1.689-2.718 0-1.897-1.253-3.119-3.423-3.119h-3.766v9.548zM38.439 23.712v-2.891h1.359c1.167 0 1.731 0.516 1.731 1.468 0 0.945-0.564 1.423-1.721 1.423h-1.369zM44.078 19.17l3.484 6.173v3.375h2.003v-3.375l3.484-6.173h-2.263l-2.176 4.112h-0.093l-2.176-4.112h-2.263z"></path>
    </symbol>
  </defs>
</svg>
