<svg viewBox="0 0 114 58" xmlns="http://www.w3.org/2000/svg" xmlns:xlink="http://www.w3.org/1999/xlink" width="114.000000" height="58.000000" fill="none" customFrame="#000000">
	<path id="logo" d="M11.6602 9.91016L13.7051 9.91016C13.6113 7.27344 11.1797 5.30469 7.80469 5.30469C4.46484 5.30469 1.83984 7.25 1.83984 10.1797C1.83984 12.5352 3.54492 13.9297 6.27539 14.7148L8.41992 15.3301C10.2598 15.8398 11.9004 16.4902 11.9004 18.2246C11.9004 20.1348 10.0547 21.4004 7.63477 21.4004C5.55469 21.4004 3.71484 20.4746 3.54492 18.5L1.36523 18.5C1.57031 21.3652 3.88477 23.3047 7.63477 23.3047C11.6602 23.3047 13.9453 21.0898 13.9453 18.2598C13.9453 14.9902 10.8398 13.9297 9.03516 13.4551L7.25977 12.9746C5.96484 12.6348 3.88477 11.9551 3.88477 10.0801C3.88477 8.41016 5.41992 7.17969 7.74023 7.17969C9.84961 7.17969 11.4551 8.1875 11.6602 9.91016ZM17.4221 23L19.5314 23L19.5314 15.1953L28.842 15.1953L28.842 23L30.9572 23L30.9572 5.54492L28.842 5.54492L28.842 13.3203L19.5314 13.3203L19.5314 5.54492L17.4221 5.54492L17.4221 23ZM49.908 14.2754C49.908 8.75 46.6678 5.30469 42.2029 5.30469C37.7381 5.30469 34.4979 8.75 34.4979 14.2754C34.4979 19.7949 37.7381 23.2402 42.2029 23.2402C46.6678 23.2402 49.908 19.7949 49.908 14.2754ZM47.8631 14.2754C47.8631 18.8047 45.3729 21.2598 42.2029 21.2598C39.033 21.2598 36.5428 18.8047 36.5428 14.2754C36.5428 9.74023 39.033 7.28516 42.2029 7.28516C45.3729 7.28516 47.8631 9.74023 47.8631 14.2754ZM53.4561 23L55.5655 23L55.5655 16.625L59.3858 16.625C63.4522 16.625 65.2862 14.1523 65.2862 11.0703C65.2862 7.98242 63.4522 5.54492 59.3507 5.54492L53.4561 5.54492L53.4561 23ZM55.5655 14.75L55.5655 7.41992L59.2862 7.41992C62.1222 7.41992 63.2061 8.97266 63.2061 11.0703C63.2061 13.1621 62.1222 14.75 59.3155 14.75L55.5655 14.75Z" fill="rgb(250,244,234)" fill-rule="nonzero" />
	<path id="logo" d="M1.51758 52L8.97656 52C12.8965 52 14.9824 49.9551 14.9824 47.1777C14.9824 44.5938 13.1309 43.0352 11.1504 42.9414L11.1504 42.7715C12.9609 42.3613 14.3027 41.0723 14.3027 39.0215C14.3027 36.4023 12.3574 34.5449 8.50781 34.5449L1.51758 34.5449L1.51758 52ZM5.20898 48.9824L5.20898 44.3477L8.30273 44.3477C10.0723 44.3477 11.1738 45.3672 11.1738 46.8086C11.1738 48.1211 10.2773 48.9824 8.21484 48.9824L5.20898 48.9824ZM5.20898 41.8516L5.20898 37.5273L8.00977 37.5273C9.65039 37.5273 10.5762 38.3711 10.5762 39.6309C10.5762 41.0137 9.45117 41.8516 7.94531 41.8516L5.20898 41.8516ZM20.3842 52L21.6792 48.0215L27.978 48.0215L29.2729 52L33.228 52L27.2104 34.5449L22.4585 34.5449L16.4292 52L20.3842 52ZM22.6167 45.1387L24.767 38.5352L24.9018 38.5352L27.0522 45.1387L22.6167 45.1387ZM35.3272 52L39.0186 52L39.0186 47.0371L40.8351 44.8223L45.6163 52L50.0284 52L43.4718 42.3613L49.9522 34.5449L45.5284 34.5449L39.2472 42.2441L39.0186 42.2441L39.0186 34.5449L35.3272 34.5449L35.3272 52ZM51.8784 52L63.6733 52L63.6733 48.959L55.5698 48.959L55.5698 44.7871L63.0346 44.7871L63.0346 41.7461L55.5698 41.7461L55.5698 37.5859L63.6381 37.5859L63.6381 34.5449L51.8784 34.5449L51.8784 52ZM66.5801 52L70.2715 52L70.2715 45.8125L72.9609 45.8125L76.2715 52L80.3438 52L76.6348 45.2148C78.6211 44.3652 79.7227 42.6309 79.7227 40.2461C79.7227 36.7773 77.4316 34.5449 73.4648 34.5449L66.5801 34.5449L66.5801 52ZM70.2715 42.8477L70.2715 37.5625L72.7559 37.5625C74.8887 37.5625 75.9199 38.5059 75.9199 40.2461C75.9199 41.9746 74.8887 42.8477 72.7734 42.8477L70.2715 42.8477ZM80.5803 34.5449L86.9494 45.8301L86.9494 52L90.6115 52L90.6115 45.8301L96.9806 34.5449L92.8439 34.5449L88.8654 42.0625L88.6955 42.0625L84.717 34.5449L80.5803 34.5449Z" fill="rgb(250,244,234)" fill-rule="nonzero" />
	<path id="logo" d="M1.51758 52L8.97656 52C12.8965 52 14.9824 49.9551 14.9824 47.1777C14.9824 44.5938 13.1309 43.0352 11.1504 42.9414L11.1504 42.7715C12.9609 42.3613 14.3027 41.0723 14.3027 39.0215C14.3027 36.4023 12.3574 34.5449 8.50781 34.5449L1.51758 34.5449L1.51758 52ZM5.20898 48.9824L5.20898 44.3477L8.30273 44.3477C10.0723 44.3477 11.1738 45.3672 11.1738 46.8086C11.1738 48.1211 10.2773 48.9824 8.21484 48.9824L5.20898 48.9824ZM5.20898 41.8516L5.20898 37.5273L8.00977 37.5273C9.65039 37.5273 10.5762 38.3711 10.5762 39.6309C10.5762 41.0137 9.45117 41.8516 7.94531 41.8516L5.20898 41.8516ZM20.3842 52L21.6792 48.0215L27.978 48.0215L29.2729 52L33.228 52L27.2104 34.5449L22.4585 34.5449L16.4292 52L20.3842 52ZM22.6167 45.1387L24.767 38.5352L24.9018 38.5352L27.0522 45.1387L22.6167 45.1387ZM35.3272 52L39.0186 52L39.0186 47.0371L40.8351 44.8223L45.6163 52L50.0284 52L43.4718 42.3613L49.9522 34.5449L45.5284 34.5449L39.2472 42.2441L39.0186 42.2441L39.0186 34.5449L35.3272 34.5449L35.3272 52ZM51.8784 52L63.6733 52L63.6733 48.959L55.5698 48.959L55.5698 44.7871L63.0346 44.7871L63.0346 41.7461L55.5698 41.7461L55.5698 37.5859L63.6381 37.5859L63.6381 34.5449L51.8784 34.5449L51.8784 52ZM66.5801 52L70.2715 52L70.2715 45.8125L72.9609 45.8125L76.2715 52L80.3438 52L76.6348 45.2148C78.6211 44.3652 79.7227 42.6309 79.7227 40.2461C79.7227 36.7773 77.4316 34.5449 73.4648 34.5449L66.5801 34.5449L66.5801 52ZM70.2715 42.8477L70.2715 37.5625L72.7559 37.5625C74.8887 37.5625 75.9199 38.5059 75.9199 40.2461C75.9199 41.9746 74.8887 42.8477 72.7734 42.8477L70.2715 42.8477ZM80.5803 34.5449L86.9494 45.8301L86.9494 52L90.6115 52L90.6115 45.8301L96.9806 34.5449L92.8439 34.5449L88.8654 42.0625L88.6955 42.0625L84.717 34.5449L80.5803 34.5449Z" fill="rgb(250,244,234)" fill-rule="nonzero" />
</svg>
